<?xml version="1.0" encoding="utf-8"?>
<!-- Generator: Adobe Illustrator 19.0.0, SVG Export Plug-In . SVG Version: 6.00 Build 0)  -->
<svg version="1.1" id="Layer_1" xmlns:v="https://vecta.io/nano"
	 xmlns="http://www.w3.org/2000/svg" xmlns:xlink="http://www.w3.org/1999/xlink" x="0px" y="0px" viewBox="-212 311 186 171"
	 style="enable-background:new -212 311 186 171;" xml:space="preserve">
<style type="text/css">
	.st0{fill:#606063;}
	.st1{fill:url(#SVGID_1_);}
	.st2{fill:#979797;}
	.st3{fill:url(#SVGID_2_);}
	.st4{fill:url(#SVGID_3_);}
	.st5{fill:#F0B90B;}
	.st6{fill:#FFFDFA;}
	.st7{opacity:0.1;fill:none;stroke:#191326;stroke-width:3;enable-background:new    ;}
	.st8{fill:url(#SVGID_4_);}
	.st9{fill:#BEBEBE;}
	.st10{fill:#F5F3F3;}
	.st11{fill:#612F01;}
	.st12{fill:#FEDC90;}
	.st13{fill:#D1884F;}
	.st14{fill:url(#SVGID_5_);}
	.st15{fill:#633001;}
	.st16{fill:#9E7200;}
	.st17{opacity:0.2;fill:none;stroke:#191326;stroke-width:2.837;enable-background:new    ;}
</style>
<g>
	<path class="st0" d="M-145,430c-3.2,12.1,15,27.4,40.6,34.1c25.6,6.7,48.9,2.3,52.1-9.9c3.2-12.1-15-27.4-40.6-34.1
		C-118.4,413.5-141.8,417.9-145,430z"/>
	<path class="st0" d="M-56.1,460.3l15.4-16.3L-150,415.4l5.7,21.8L-56.1,460.3z"/>
	<path class="st0" d="M-143.1,419.3l-41.9-11c-1.8-0.5-3.7,0.7-4.1,2.5l-0.5,2.1c-0.9,4.2,1.6,8.5,5.7,9.7l41.8,12.2
		C-141.9,434.9-143.1,419.3-143.1,419.3z"/>
</g>
<linearGradient id="SVGID_1_" gradientUnits="userSpaceOnUse" x1="-87.2431" y1="395.226" x2="-100.6191" y2="344.114" gradientTransform="matrix(1 0 0 -1 0 794)">
	<stop  offset="0" style="stop-color:#404042"/>
	<stop  offset="1" style="stop-color:#48484B"/>
</linearGradient>
<path class="st1" d="M-149.8,409.7c-3.7,14.1,18.3,32.1,49.2,40.2c30.9,8.1,58.9,3.2,62.6-10.9c3.7-14.1-18.3-32.1-49.2-40.2
	C-118.1,390.7-146.1,395.6-149.8,409.7L-149.8,409.7z"/>
<g>
	<path class="st0" d="M-65.3,434.3c7.1,5.2,11.2,10.9,11.9,15.9l3-0.4c-0.8-6.2-5.7-12.5-13.1-17.9c-7.4-5.4-17.4-10.1-28.9-13.2
		c-11.5-3-22.5-3.8-31.6-2.7c-9,1.1-16.4,4.2-20.2,9.2l2.4,1.8c3-4.1,9.4-6.9,18.1-8c8.7-1.1,19.4-0.3,30.5,2.6
		S-72.4,429.1-65.3,434.3L-65.3,434.3z"/>
	<path class="st2" d="M-136.3,429.7c-8.7-7.1-12-14-10.6-19.3c1.4-5.2,7.6-9.7,18.7-11.6c10.8-1.9,25.1-1.2,40.2,2.8
		s27.9,10.3,36.4,17.2c8.7,7.1,12,14,10.6,19.3c-1.4,5.2-7.6,9.7-18.7,11.6c-10.8,1.9-25.1,1.2-40.2-2.8S-127.8,436.7-136.3,429.7
		L-136.3,429.7z M-100.6,449.9c-30.9-8.1-52.9-26.1-49.2-40.2c3.7-14.1,31.7-19,62.6-10.9c30.9,8.1,52.9,26.1,49.2,40.2
		C-41.8,453.1-69.8,458-100.6,449.9L-100.6,449.9z"/>
	
		<linearGradient id="SVGID_2_" gradientUnits="userSpaceOnUse" x1="-146.4329" y1="377.9044" x2="-151.2651" y2="359.8706" gradientTransform="matrix(1 0 0 -1 0 794)">
		<stop  offset="0" style="stop-color:#404042"/>
		<stop  offset="1" style="stop-color:#48484B"/>
	</linearGradient>
	<path class="st3" d="M-147.8,435l-4.9-19.1l2.9-0.8l4.9,19.1L-147.8,435z"/>
	
		<linearGradient id="SVGID_3_" gradientUnits="userSpaceOnUse" x1="-119.5056" y1="402.8311" x2="-103.9105" y2="318.3795" gradientTransform="matrix(1 0 0 -1 0 794)">
		<stop  offset="0" style="stop-color:#404042"/>
		<stop  offset="1" style="stop-color:#48484B"/>
	</linearGradient>
	<path class="st4" d="M-149.5,417.2l-0.1-0.4l-0.2-0.8l-0.1-0.5c0,0,0,0,0,0l0,0l-0.1-0.8l0-0.2c-0.1-0.7-0.1-1.3-0.1-2
		c0-0.9,0.2-1.8,0.4-2.7c3.7-14.1,31.7-19,62.6-10.9c30.9,8.1,52.9,26.1,49.2,40.2c-0.2,0.9-0.6,1.7-1,2.5c-0.5,0.9-1,1.7-1.6,2.5
		l0,0c0,0,0,0,0,0l-0.6,0.7l-12.9,13.7c-6.8,9-27.6,11.8-50.1,5.8c-22.3-5.8-39-18.2-40.8-29.3c-0.1-0.6-0.5-1.1-1-1.2l-36.7-10.7
		c-4.1-1.2-6.7-5.4-5.8-9.6l0.5-2.2c0.4-1.8,2.2-3,4.1-2.5l34.2,8.9c0.1,0,0.3,0,0.3-0.2C-149.5,417.3-149.5,417.2-149.5,417.2
		L-149.5,417.2z M-153.2,413.6c-0.1-1.5,0.1-3.1,0.5-4.6c2.3-8.9,11.9-14,23.5-16c11.8-2.1,27-1.2,42.7,2.9
		c15.7,4.1,29.4,10.8,38.7,18.4c9.1,7.4,15,16.6,12.6,25.4c-0.6,2.1-1.6,4.1-2.9,5.8c-0.1,0.2-0.3,0.4-0.4,0.6l-13.4,14.2
		c-4.2,5.4-12,8.5-21.1,9.6c-9.3,1.1-20.5,0.3-32.1-2.8c-11.5-3-21.5-7.7-29.1-13.1c-7.1-5.1-12.3-11.3-13.7-17.7l-35.8-10.5
		c-5.6-1.7-9.1-7.4-7.9-13.1l0.5-2.2c0.7-3.5,4.3-5.7,7.8-4.8L-153.2,413.6L-153.2,413.6z"/>
</g>
<circle class="st5" cx="-136" cy="340" r="29"/>
<path class="st6" d="M-146.8,340l-4.4,4.5l-4.5-4.5l4.5-4.5L-146.8,340z M-136,329.2l7.6,7.6l4.5-4.5l-7.6-7.6l-4.5-4.5l-12.1,12.1
	l4.5,4.5L-136,329.2z M-120.7,335.5l-4.4,4.5l4.5,4.5l4.4-4.5L-120.7,335.5z M-136,350.8l-7.6-7.6l-4.4,4.5l12.1,12.1l12.1-12.1
	l-4.5-4.4L-136,350.8z M-136,344.5l4.5-4.5l-4.5-4.5l-4.5,4.5L-136,344.5z"/>
<circle class="st7" cx="-136" cy="340" r="27.5"/>
<linearGradient id="SVGID_4_" gradientUnits="userSpaceOnUse" x1="-86.5" y1="454" x2="-86.5" y2="367" gradientTransform="matrix(1 0 0 -1 0 794)">
	<stop  offset="0" style="stop-color:#54DADE"/>
	<stop  offset="0.762" style="stop-color:#24C7D6"/>
</linearGradient>
<circle class="st8" cx="-86.5" cy="383.5" r="43.5"/>
<path class="st0" d="M-114.8,388.3l0,0.5c0,0.6,0.1,1.2,0.2,1.8h-0.2v0.9c0,0.5,0,0.9,0.1,1.4c1.2,8.8,13.3,15.8,28.2,15.8
	s27-7,28.2-15.8c0.1-0.5,0.1-0.9,0.1-1.4v-0.9h-0.2c0.1-0.6,0.2-1.2,0.2-1.8c0-0.2,0-0.3,0-0.5c-0.4-9.3-12.9-16.7-28.3-16.7
	S-114.3,379-114.8,388.3z M-117.1,388.3c0.2-5.6,4-10.4,9.4-13.6c5.5-3.4,13-5.4,21.2-5.4s15.7,2,21.2,5.4c5.3,3.2,9.2,8,9.4,13.6h0
	v3.3c0,5.9-3.9,10.8-9.4,14.1c-5.5,3.4-13,5.4-21.2,5.4s-15.7-2-21.2-5.4c-5.5-3.3-9.4-8.3-9.4-14.1L-117.1,388.3L-117.1,388.3z"/>
<path class="st9" d="M-58.2,391.5c0,9.5-12.7,17.2-28.3,17.2s-28.3-7.7-28.3-17.2v-2.7h56.5V391.5z"/>
<path class="st10" d="M-58.2,388.8c0,9.5-12.7,17.2-28.3,17.2s-28.3-7.7-28.3-17.2s12.7-17.2,28.3-17.2S-58.2,379.3-58.2,388.8
	L-58.2,388.8z"/>
<path class="st11" d="M-110.4,383.9L-110.4,383.9c0,0.8,0.1,1.6,0.3,2.3h-0.3v1c0,0.4,0,0.9,0.1,1.3c1.1,6.5,10.1,11.6,21.1,11.6
	s20-5.1,21.1-11.6c0.1-0.4,0.1-0.9,0.1-1.3v-1h-0.3c0.2-0.7,0.3-1.5,0.3-2.2v-0.1c0-7.1-9.5-12.9-21.2-12.9
	S-110.4,376.8-110.4,383.9z M-112.7,383.9L-112.7,383.9v3.3c0,4.7,3.1,8.6,7.3,11.1c4.3,2.6,10,4.1,16.2,4.1
	c6.2,0,11.9-1.5,16.2-4.1c4.2-2.6,7.3-6.4,7.3-11.1V384l0-0.1c0-4.7-3.1-8.6-7.3-11.1c-4.3-2.6-10-4.1-16.2-4.1s-11.9,1.5-16.2,4.1
	C-109.6,375.4-112.7,379.3-112.7,383.9L-112.7,383.9z"/>
<path class="st12" d="M-68.1,387.2c0,7.1-9.5,12.9-21.2,12.9s-21.2-5.8-21.2-12.9v-3h42.3V387.2z"/>
<path class="st13" d="M-68.1,384c0,7.1-9.5,12.9-21.2,12.9s-21.2-5.8-21.2-12.9c0-7.1,9.5-12.9,21.2-12.9S-68.1,376.8-68.1,384z"/>
<path class="st11" d="M-104,377L-104,377c0,0.8,0.1,1.6,0.3,2.3h-0.3v1c0,0.4,0,0.9,0.1,1.3c1.1,6.5,10.1,11.6,21.1,11.6
	s20-5.1,21.1-11.6c0.1-0.4,0.1-0.9,0.1-1.3v-1H-62c0.2-0.7,0.3-1.5,0.3-2.2V377c0-7.1-9.5-12.9-21.2-12.9S-104,369.8-104,377z
	 M-106.4,377L-106.4,377v3.3c0,4.7,3.1,8.6,7.3,11.1c4.3,2.6,10,4.1,16.2,4.1c6.2,0,11.9-1.5,16.2-4.1c4.2-2.6,7.3-6.4,7.3-11.1V377
	c0-4.7-3.1-8.6-7.3-11.1c-4.3-2.6-10-4.1-16.2-4.1s-11.9,1.5-16.2,4.1C-103.3,368.4-106.3,372.3-106.4,377z"/>
<path class="st12" d="M-61.7,380.3c0,7.1-9.5,12.9-21.2,12.9s-21.2-5.8-21.2-12.9v-3h42.3V380.3z"/>
<path class="st13" d="M-61.7,377c0,7.1-9.5,12.9-21.2,12.9S-104,384.1-104,377c0-7.1,9.5-12.9,21.2-12.9S-61.7,369.9-61.7,377z"/>
<path class="st11" d="M-110.4,370L-110.4,370c0,0.8,0.1,1.6,0.3,2.3h-0.3v1c0,0.4,0,0.9,0.1,1.3c1.1,6.5,10.1,11.6,21.1,11.6
	s20-5.1,21.1-11.6c0.1-0.4,0.1-0.9,0.1-1.3v-1h-0.3c0.2-0.7,0.3-1.5,0.3-2.2V370c0-7.1-9.5-12.9-21.2-12.9S-110.4,362.9-110.4,370z
	 M-112.7,370L-112.7,370v3.3c0,4.7,3.1,8.6,7.3,11.1c4.3,2.6,10,4.1,16.2,4.1c6.2,0,11.9-1.5,16.2-4.1c4.2-2.6,7.3-6.4,7.3-11.1
	v-3.2l0-0.1c0-4.7-3.1-8.6-7.3-11.1c-4.3-2.6-10-4.1-16.2-4.1s-11.9,1.5-16.2,4.1C-109.6,361.5-112.7,365.3-112.7,370L-112.7,370z"
	/>
<path class="st12" d="M-68.1,373.3c0,7.1-9.5,12.9-21.2,12.9s-21.2-5.8-21.2-12.9v-3h42.3C-68.1,370.3-68.1,373.3-68.1,373.3z"/>
<path class="st13" d="M-68.1,370c0,7.1-9.5,12.9-21.2,12.9s-21.2-5.8-21.2-12.9s9.5-12.9,21.2-12.9S-68.1,362.9-68.1,370z"/>
<g>
	
		<linearGradient id="SVGID_5_" gradientUnits="userSpaceOnUse" x1="-92.6685" y1="430.732" x2="-92.6685" y2="403.835" gradientTransform="matrix(1 0 0 -1 0 794)">
		<stop  offset="0" style="stop-color:#9F4A08"/>
		<stop  offset="0.37" style="stop-color:#7D3900"/>
		<stop  offset="1" style="stop-color:#8D4104"/>
	</linearGradient>
	<path class="st14" d="M-105.4,370.8c0,2.4,1.7,4.5,4.5,6l-1.9,3.3h0h0v8.3c0,1.1,0.9,2,2,2c1.1,0,2-0.9,2-2v-6.6l2-3.5
		c1.3,0.3,2.7,0.4,4.2,0.4c7,0,12.7-3.5,12.7-7.8s-5.7-7.8-12.7-7.8S-105.4,366.5-105.4,370.8z"/>
	<path class="st15" d="M-100.9,376.8l-0.9-0.5c-2.2-1.4-3.6-3.3-3.6-5.5c0-4.3,5.7-7.8,12.7-7.8s12.7,3.5,12.7,7.8
		s-5.7,7.8-12.7,7.8c-1.4,0-2.8-0.1-4.2-0.4l-2,3.5v6.6c0,1.1-0.9,2-2,2c-1.1,0-2-0.9-2-2v-8.3
		C-102.8,380.1-100.9,376.8-100.9,376.8z M-104.9,380.1v8.3c0,2.2,1.8,4,4,4c2.2,0,4-1.8,4-4v-6.1l1.1-1.8c1,0.1,2.1,0.2,3.1,0.2
		c3.8,0,7.4-1,10.1-2.6c2.6-1.6,4.7-4.1,4.7-7.3c0-3.1-2.1-5.6-4.7-7.3c-2.7-1.6-6.2-2.6-10.1-2.6s-7.4,1-10.1,2.6
		c-2.6,1.6-4.7,4.1-4.7,7.3c0,2.7,1.6,5,3.8,6.6l-0.9,1.6c-0.1,0.1-0.2,0.3-0.2,0.5C-104.8,379.7-104.9,379.9-104.9,380.1
		L-104.9,380.1z"/>
</g>
<g>
	<g>
		<path id="F" class="st16" d="M-101.4,367.5c0,2.2,2.9,4.1,6.4,4.1s6.4-1.8,6.4-4.1c0-2.2-2.9-4.1-6.4-4.1
			S-101.4,365.3-101.4,367.5z"/>
	</g>
	<path class="st16" d="M-101.4,365.8h12.8v1.7h-12.8V365.8z"/>
</g>
<g>
	<path id="F_1_" class="st5" d="M-101.4,365.8c0,2.2,2.9,4.1,6.4,4.1s6.4-1.8,6.4-4.1c0-2.2-2.9-4.1-6.4-4.1
		S-101.4,363.6-101.4,365.8z"/>
</g>
<path class="st16" d="M-97.5,365.3l1.8-1.1c0.4-0.2,0.9-0.2,1.2,0l1.8,1.1c0.3,0.2,0.3,0.5,0.2,0.8c0,0.1-0.1,0.1-0.2,0.2l-1.8,1.1
	c-0.4,0.2-0.9,0.2-1.2,0l-1.8-1.1c-0.3-0.2-0.3-0.5-0.2-0.8C-97.6,365.4-97.5,365.4-97.5,365.3z"/>
<path class="st15" d="M-100.7,361.2c1.5-1,3.5-1.5,5.6-1.5s4.1,0.5,5.6,1.5c1.5,1,2.8,2.5,2.8,4.6v1.7c0,2.1-1.3,3.6-2.8,4.6
	c-1.5,1-3.5,1.5-5.6,1.5s-4.1-0.5-5.6-1.5c-1.5-1-2.8-2.5-2.8-4.6v-1.7C-103.5,363.7-102.2,362.2-100.7,361.2z M-95.1,361.7
	c-3.5,0-6.4,1.8-6.4,4.1v1.7c0,2.2,2.9,4.1,6.4,4.1s6.4-1.8,6.4-4.1v-1.7C-88.7,363.6-91.5,361.7-95.1,361.7z"/>
<circle class="st17" cx="-86.5" cy="383.5" r="42.1"/>
<image style="overflow:visible;" width="450" height="450" xlink:href="../../../../logo192.png"  transform="matrix(0.2023 0 0 0.2023 -131.532 340.026)">
</image>
</svg>
